{
    "header": {
        "keySignatures": [
            {
                "key": "F",
                "scale": "major",
                "ticks": 0
            }
        ],
        "meta": [],
        "name": "",
        "ppq": 256,
        "tempos": [
            {
                "bpm": 16,
                "ticks": 4551
            },
            {
                "bpm": 100,
                "ticks": 4583
            },
            {
                "bpm": 16,
                "ticks": 4782
            },
            {
                "bpm": 100,
                "ticks": 4814
            }
        ],
        "timeSignatures": [
            {
                "ticks": 0,
                "timeSignature": [
                    4,
                    4
                ],
                "measures": 0
            },
            {
                "ticks": 0,
                "timeSignature": [
                    3,
                    4
                ],
                "measures": 0
            }
        ]
    },
    "tracks": [
        {
            "channel": 0,
            "controlChanges": {
                "0": [
                    {
                        "number": 0,
                        "ticks": 0,
                        "time": 0,
                        "value": 0
                    }
                ],
                "10": [
                    {
                        "number": 10,
                        "ticks": 0,
                        "time": 0,
                        "value": 0.5748031496062992
                    },
                    {
                        "number": 10,
                        "ticks": 0,
                        "time": 0,
                        "value": 0.5748031496062992
                    }
                ],
                "32": [
                    {
                        "number": 32,
                        "ticks": 0,
                        "time": 0,
                        "value": 0
                    }
                ],
                "91": [
                    {
                        "number": 91,
                        "ticks": 0,
                        "time": 0,
                        "value": 0.3937007874015748
                    },
                    {
                        "number": 91,
                        "ticks": 0,
                        "time": 0,
                        "value": 0.3937007874015748
                    }
                ]
            },
            "pitchBends": [],
            "instrument": {
                "family": "piano",
                "name": "acoustic grand piano",
                "number": 0
            },
            "name": "",
            "notes": [
               
                {"duration": 1,"midi": 22,"time": 0,"velocity": 0.56},
                {"duration": 1,"midi": 24,"time": 0,"velocity": 0.56},
                {"duration": 1,"midi": 26,"time": 0,"velocity": 0.56},
                {"duration": 1,"midi": 28,"time": 0,"velocity": 0.56},
                {"duration": 1,"midi": 30,"time": 0,"velocity": 0.56},
                {"duration": 1,"midi": 32,"time": 0,"velocity": 0.56},
                {"duration": 1,"midi": 34,"time": 0,"velocity": 0.56},
                {"duration": 1,"midi": 36,"time": 0,"velocity": 0.56},
                {"duration": 1,"midi": 38,"time": 0,"velocity": 0.56},
                {"duration": 1,"midi": 40,"time": 0,"velocity": 0.56},
                {"duration": 1,"midi": 42,"time": 0,"velocity": 0.56},
                {"duration": 1,"midi": 44,"time": 0,"velocity": 0.56},
                {"duration": 1,"midi": 46,"time": 0,"velocity": 0.56},
                {"duration": 1,"midi": 48,"time": 0,"velocity": 0.56},
                {"duration": 1,"midi": 50,"time": 0,"velocity": 0.56},
                {"duration": 1,"midi": 52,"time": 0,"velocity": 0.56},
                {"duration": 1,"midi": 54,"time": 0,"velocity": 0.56},
                {"duration": 1,"midi": 56,"time": 0,"velocity": 0.56},
                {"duration": 1,"midi": 58,"time": 0,"velocity": 0.56},
                {"duration": 2,"midi": 60,"time": 0,"velocity": 0.56},

                {"duration": 1,"midi": 62,"time": 0,"velocity": 0.56},
                {"duration": 1,"midi": 64,"time": 0,"velocity": 0.56},
                {"duration": 1,"midi": 66,"time": 0,"velocity": 0.56},
                {"duration": 1,"midi": 68,"time": 0,"velocity": 0.56},
                {"duration": 1,"midi": 70,"time": 0,"velocity": 0.56},
                {"duration": 1,"midi": 72,"time": 0,"velocity": 0.56},
                {"duration": 1,"midi": 74,"time": 0,"velocity": 0.56},
                {"duration": 1,"midi": 76,"time": 0,"velocity": 0.56},
                {"duration": 1,"midi": 78,"time": 0,"velocity": 0.56},
                {"duration": 1,"midi": 80,"time": 0,"velocity": 0.56},
                {"duration": 1,"midi": 82,"time": 0,"velocity": 0.56},
                {"duration": 1,"midi": 84,"time": 0,"velocity": 0.56},
                {"duration": 1,"midi": 86,"time": 0,"velocity": 0.56},
                {"duration": 1,"midi": 88,"time": 0,"velocity": 0.56},
                {"duration": 1,"midi": 90,"time": 0,"velocity": 0.56},
                {"duration": 1,"midi": 92,"time": 0,"velocity": 0.56},
                {"duration": 1,"midi": 94,"time": 0,"velocity": 0.56},
                {"duration": 1,"midi": 96,"time": 0,"velocity": 0.56},
                {"duration": 1,"midi": 98,"time": 0,"velocity": 0.56},
                {"duration": 1,"midi": 100,"time": 0,"velocity": 0.56},
                {"duration": 1,"midi": 102,"time": 0,"velocity": 0.56},
                {"duration": 1,"midi": 104,"time": 0,"velocity": 0.56},
                {"duration": 1,"midi": 106,"time": 0,"velocity": 0.56}
                
                
                
            ],
            "endOfTrackTicks": 6351
        },
        {
            "channel": 0,
            "controlChanges": {
                "0": [
                    {
                        "number": 0,
                        "ticks": 0,
                        "time": 0,
                        "value": 0
                    }
                ],
                "10": [
                    {
                        "number": 10,
                        "ticks": 0,
                        "time": 0,
                        "value": 0.5748031496062992
                    },
                    {
                        "number": 10,
                        "ticks": 0,
                        "time": 0,
                        "value": 0.5748031496062992
                    }
                ],
                "32": [
                    {
                        "number": 32,
                        "ticks": 0,
                        "time": 0,
                        "value": 0
                    }
                ],
                "91": [
                    {
                        "number": 91,
                        "ticks": 0,
                        "time": 0,
                        "value": 0.3937007874015748
                    },
                    {
                        "number": 91,
                        "ticks": 0,
                        "time": 0,
                        "value": 0.3937007874015748
                    }
                ]
            },
            "pitchBends": [],
            "instrument": {
                "family": "piano",
                "name": "acoustic grand piano",
                "number": 0
            },
            "name": "",
            "notes": [
               
                {"duration": 1,"midi": 21,"time": 0,"velocity": 0.56},
                {"duration": 1,"midi": 23,"time": 0,"velocity": 0.56},
                {"duration": 1,"midi": 25,"time": 0,"velocity": 0.56},
                {"duration": 1,"midi": 27,"time": 0,"velocity": 0.56},
                {"duration": 1,"midi": 29,"time": 0,"velocity": 0.56},
                {"duration": 1,"midi": 31,"time": 0,"velocity": 0.56},
                {"duration": 1,"midi": 33,"time": 0,"velocity": 0.56},
                {"duration": 1,"midi": 35,"time": 0,"velocity": 0.56},
                {"duration": 1,"midi": 37,"time": 0,"velocity": 0.56},
                {"duration": 1,"midi": 39,"time": 0,"velocity": 0.56},
                {"duration": 1,"midi": 41,"time": 0,"velocity": 0.56},
                {"duration": 1,"midi": 43,"time": 0,"velocity": 0.56},
                {"duration": 1,"midi": 45,"time": 0,"velocity": 0.56},
                {"duration": 1,"midi": 47,"time": 0,"velocity": 0.56},
                {"duration": 1,"midi": 49,"time": 0,"velocity": 0.56},
                {"duration": 1,"midi": 51,"time": 0,"velocity": 0.56},
                {"duration": 1,"midi": 53,"time": 0,"velocity": 0.56},
                {"duration": 1,"midi": 55,"time": 0,"velocity": 0.56},
                {"duration": 1,"midi": 57,"time": 0,"velocity": 0.56},
                {"duration": 1,"midi": 59,"time": 0,"velocity": 0.56},

                {"duration": 1,"midi": 61,"time": 0,"velocity": 0.56},
                {"duration": 1,"midi": 63,"time": 0,"velocity": 0.56},
                {"duration": 1,"midi": 65,"time": 0,"velocity": 0.56},
                {"duration": 1,"midi": 67,"time": 0,"velocity": 0.56},
                {"duration": 1,"midi": 69,"time": 0,"velocity": 0.56},
                {"duration": 1,"midi": 71,"time": 0,"velocity": 0.56},
                {"duration": 1,"midi": 73,"time": 0,"velocity": 0.56},
                {"duration": 1,"midi": 75,"time": 0,"velocity": 0.56},
                {"duration": 1,"midi": 77,"time": 0,"velocity": 0.56},
                {"duration": 1,"midi": 79,"time": 0,"velocity": 0.56},
                {"duration": 1,"midi": 81,"time": 0,"velocity": 0.56},
                {"duration": 1,"midi": 83,"time": 0,"velocity": 0.56},
                {"duration": 1,"midi": 85,"time": 0,"velocity": 0.56},
                {"duration": 1,"midi": 87,"time": 0,"velocity": 0.56},
                {"duration": 1,"midi": 89,"time": 0,"velocity": 0.56},
                {"duration": 1,"midi": 91,"time": 0,"velocity": 0.56},
                {"duration": 1,"midi": 93,"time": 0,"velocity": 0.56},
                {"duration": 1,"midi": 95,"time": 0,"velocity": 0.56},
                {"duration": 1,"midi": 97,"time": 0,"velocity": 0.56},
                {"duration": 1,"midi": 99,"time": 0,"velocity": 0.56},
                {"duration": 1,"midi": 101,"time": 0,"velocity": 0.56},
                {"duration": 1,"midi": 103,"time": 0,"velocity": 0.56},
                {"duration": 1,"midi": 105,"time": 0,"velocity": 0.56},
                {"duration": 1,"midi": 107,"time": 0,"velocity": 0.56}
                
                
                
            ],
            "endOfTrackTicks": 6351
        }
    ]
}